<mxfile host="app.diagrams.net" modified="2024-05-14T16:24:42.874Z" agent="Mozilla/5.0 (Windows NT 10.0; Win64; x64) AppleWebKit/537.36 (KHTML, like Gecko) Chrome/124.0.0.0 Safari/537.36" etag="NKYySmZ2GbnwvqLxNxM2" version="24.0.4" type="device">
  <diagram id="yPxyJZ8AM_hMuL3Unpa9" name="gitflow">
    <mxGraphModel dx="2276" dy="1913" grid="1" gridSize="10" guides="1" tooltips="1" connect="1" arrows="1" fold="1" page="1" pageScale="1" pageWidth="850" pageHeight="1100" math="0" shadow="0">
      <root>
        <mxCell id="0" />
        <mxCell id="1" parent="0" />
        <mxCell id="52" value="Z0" style="ellipse;whiteSpace=wrap;html=1;aspect=fixed;fontSize=10;fillColor=#e1d5e7;strokeColor=#9673a6;" parent="1" vertex="1">
          <mxGeometry x="-79" y="132" width="58" height="58" as="geometry" />
        </mxCell>
        <mxCell id="X5qCzSRsX2g8T83lWoOT-183" value="Pattern = &quot;EISBEIN&quot;" style="text;html=1;align=center;verticalAlign=middle;whiteSpace=wrap;rounded=0;" parent="1" vertex="1">
          <mxGeometry x="-265" y="-160" width="130" height="30" as="geometry" />
        </mxCell>
        <mxCell id="X5qCzSRsX2g8T83lWoOT-184" value="Alphabet A = &quot;B, E, I, N, S, ...&quot;" style="text;html=1;align=center;verticalAlign=middle;whiteSpace=wrap;rounded=0;" parent="1" vertex="1">
          <mxGeometry x="-125" y="-160" width="175" height="30" as="geometry" />
        </mxCell>
        <mxCell id="X5qCzSRsX2g8T83lWoOT-191" value="!A" style="text;html=1;align=center;verticalAlign=middle;whiteSpace=wrap;rounded=0;" parent="1" vertex="1">
          <mxGeometry x="-90" y="89" width="60" height="30" as="geometry" />
        </mxCell>
        <mxCell id="X5qCzSRsX2g8T83lWoOT-196" value="&lt;div&gt;&lt;u&gt;Zustandslegende&lt;/u&gt;&lt;/div&gt;&lt;div&gt;&lt;ul&gt;&lt;li&gt;Z0 = nichts&lt;/li&gt;&lt;li&gt;Z1 = &quot;E&quot;&lt;/li&gt;&lt;li&gt;Z2 = &quot;EI&quot;&lt;/li&gt;&lt;li&gt;Z3 = &quot;EIS&quot;&lt;/li&gt;&lt;li&gt;Z4 = &quot;EISB&quot;&lt;/li&gt;&lt;li&gt;Z5 = &quot;EISBE&quot;&lt;/li&gt;&lt;li&gt;Z6 = &quot;EISBEI&quot;&lt;/li&gt;&lt;li&gt;Z7 = &quot;EISBEIN&quot;&lt;/li&gt;&lt;/ul&gt;&lt;/div&gt;" style="text;html=1;align=left;verticalAlign=middle;whiteSpace=wrap;rounded=0;" parent="1" vertex="1">
          <mxGeometry x="-255" y="-130" width="155" height="160" as="geometry" />
        </mxCell>
        <mxCell id="X5qCzSRsX2g8T83lWoOT-208" value="&lt;b&gt;bei != Alphabet immer zurÃ¼ck zu Z0&lt;/b&gt;" style="text;html=1;align=center;verticalAlign=middle;whiteSpace=wrap;rounded=0;" parent="1" vertex="1">
          <mxGeometry x="-265" y="30" width="215" height="30" as="geometry" />
        </mxCell>
        <mxCell id="X5qCzSRsX2g8T83lWoOT-211" style="edgeStyle=orthogonalEdgeStyle;rounded=1;orthogonalLoop=1;jettySize=auto;html=1;dashed=1;endArrow=none;endFill=0;fontSize=10;fontColor=#FFB570;fillColor=#e1d5e7;strokeColor=#9673a6;entryX=1;entryY=0.5;entryDx=0;entryDy=0;startArrow=classic;startFill=1;exitX=0.594;exitY=0.005;exitDx=0;exitDy=0;exitPerimeter=0;" parent="1" source="52" edge="1">
          <mxGeometry relative="1" as="geometry">
            <mxPoint x="-29" y="112" as="sourcePoint" />
            <mxPoint x="-68.99999999999295" y="132" as="targetPoint" />
            <Array as="points">
              <mxPoint x="-45" y="120" />
              <mxPoint x="-45" y="113" />
              <mxPoint x="-68" y="113" />
              <mxPoint x="-68" y="132" />
            </Array>
          </mxGeometry>
        </mxCell>
        <mxCell id="AvgogbDg6BR7GDdZJ443-75" value="Z1" style="ellipse;whiteSpace=wrap;html=1;aspect=fixed;fontSize=10;fillColor=#e1d5e7;strokeColor=#9673a6;" vertex="1" parent="1">
          <mxGeometry x="250" y="110" width="58" height="58" as="geometry" />
        </mxCell>
        <mxCell id="AvgogbDg6BR7GDdZJ443-76" value="Z2" style="ellipse;whiteSpace=wrap;html=1;aspect=fixed;fontSize=10;fillColor=#e1d5e7;strokeColor=#9673a6;" vertex="1" parent="1">
          <mxGeometry x="650" y="132" width="58" height="58" as="geometry" />
        </mxCell>
        <mxCell id="AvgogbDg6BR7GDdZJ443-77" value="Z3" style="ellipse;whiteSpace=wrap;html=1;aspect=fixed;fontSize=10;fillColor=#e1d5e7;strokeColor=#9673a6;" vertex="1" parent="1">
          <mxGeometry x="760" y="400" width="58" height="58" as="geometry" />
        </mxCell>
        <mxCell id="AvgogbDg6BR7GDdZJ443-78" value="Z4" style="ellipse;whiteSpace=wrap;html=1;aspect=fixed;fontSize=10;fillColor=#e1d5e7;strokeColor=#9673a6;" vertex="1" parent="1">
          <mxGeometry x="530" y="590" width="58" height="58" as="geometry" />
        </mxCell>
        <mxCell id="AvgogbDg6BR7GDdZJ443-79" value="Z5" style="ellipse;whiteSpace=wrap;html=1;aspect=fixed;fontSize=10;fillColor=#e1d5e7;strokeColor=#9673a6;" vertex="1" parent="1">
          <mxGeometry x="192" y="630" width="58" height="58" as="geometry" />
        </mxCell>
        <mxCell id="AvgogbDg6BR7GDdZJ443-80" value="Z6" style="ellipse;whiteSpace=wrap;html=1;aspect=fixed;fontSize=10;fillColor=#e1d5e7;strokeColor=#9673a6;" vertex="1" parent="1">
          <mxGeometry x="-79" y="510" width="58" height="58" as="geometry" />
        </mxCell>
        <mxCell id="AvgogbDg6BR7GDdZJ443-81" value="Z7" style="ellipse;whiteSpace=wrap;html=1;aspect=fixed;fontSize=10;fillColor=#e1d5e7;strokeColor=#9673a6;" vertex="1" parent="1">
          <mxGeometry x="-210" y="290" width="58" height="58" as="geometry" />
        </mxCell>
        <mxCell id="AvgogbDg6BR7GDdZJ443-82" style="edgeStyle=orthogonalEdgeStyle;rounded=1;orthogonalLoop=1;jettySize=auto;html=1;dashed=1;endArrow=none;endFill=0;fontSize=10;fontColor=#FFB570;fillColor=#e1d5e7;strokeColor=#9673a6;entryX=1;entryY=0.5;entryDx=0;entryDy=0;exitX=0;exitY=0.5;exitDx=0;exitDy=0;startArrow=classic;startFill=1;" edge="1" parent="1" source="AvgogbDg6BR7GDdZJ443-75" target="52">
          <mxGeometry relative="1" as="geometry">
            <mxPoint x="150.00000000000705" y="160" as="sourcePoint" />
            <mxPoint x="20.00000000000705" y="180" as="targetPoint" />
          </mxGeometry>
        </mxCell>
        <mxCell id="AvgogbDg6BR7GDdZJ443-83" style="edgeStyle=orthogonalEdgeStyle;rounded=1;orthogonalLoop=1;jettySize=auto;html=1;dashed=1;endArrow=none;endFill=0;fontSize=10;fontColor=#FFB570;fillColor=#e1d5e7;strokeColor=#9673a6;entryX=1;entryY=0.5;entryDx=0;entryDy=0;exitX=0;exitY=0.5;exitDx=0;exitDy=0;startArrow=classic;startFill=1;" edge="1" parent="1" source="AvgogbDg6BR7GDdZJ443-76" target="AvgogbDg6BR7GDdZJ443-75">
          <mxGeometry relative="1" as="geometry">
            <mxPoint x="540.000000000007" y="120" as="sourcePoint" />
            <mxPoint x="410.00000000000705" y="140" as="targetPoint" />
          </mxGeometry>
        </mxCell>
        <mxCell id="AvgogbDg6BR7GDdZJ443-84" style="edgeStyle=orthogonalEdgeStyle;rounded=1;orthogonalLoop=1;jettySize=auto;html=1;dashed=1;endArrow=none;endFill=0;fontSize=10;fontColor=#FFB570;fillColor=#e1d5e7;strokeColor=#9673a6;entryX=0.5;entryY=1;entryDx=0;entryDy=0;exitX=0.5;exitY=0;exitDx=0;exitDy=0;startArrow=classic;startFill=1;" edge="1" parent="1" source="AvgogbDg6BR7GDdZJ443-77" target="AvgogbDg6BR7GDdZJ443-76">
          <mxGeometry relative="1" as="geometry">
            <mxPoint x="710.000000000007" y="270" as="sourcePoint" />
            <mxPoint x="580.000000000007" y="290" as="targetPoint" />
          </mxGeometry>
        </mxCell>
        <mxCell id="AvgogbDg6BR7GDdZJ443-85" style="edgeStyle=orthogonalEdgeStyle;rounded=1;orthogonalLoop=1;jettySize=auto;html=1;dashed=1;endArrow=none;endFill=0;fontSize=10;fontColor=#FFB570;fillColor=#e1d5e7;strokeColor=#9673a6;entryX=0.5;entryY=1;entryDx=0;entryDy=0;exitX=1;exitY=0.5;exitDx=0;exitDy=0;startArrow=classic;startFill=1;" edge="1" parent="1" source="AvgogbDg6BR7GDdZJ443-78" target="AvgogbDg6BR7GDdZJ443-77">
          <mxGeometry relative="1" as="geometry">
            <mxPoint x="820.000000000007" y="580" as="sourcePoint" />
            <mxPoint x="690.000000000007" y="600" as="targetPoint" />
          </mxGeometry>
        </mxCell>
        <mxCell id="AvgogbDg6BR7GDdZJ443-86" style="edgeStyle=orthogonalEdgeStyle;rounded=1;orthogonalLoop=1;jettySize=auto;html=1;dashed=1;endArrow=none;endFill=0;fontSize=10;fontColor=#FFB570;fillColor=#e1d5e7;strokeColor=#9673a6;entryX=0;entryY=0.5;entryDx=0;entryDy=0;exitX=1;exitY=0.5;exitDx=0;exitDy=0;startArrow=classic;startFill=1;" edge="1" parent="1" source="AvgogbDg6BR7GDdZJ443-79" target="AvgogbDg6BR7GDdZJ443-78">
          <mxGeometry relative="1" as="geometry">
            <mxPoint x="410.00000000000705" y="520" as="sourcePoint" />
            <mxPoint x="280.00000000000705" y="540" as="targetPoint" />
          </mxGeometry>
        </mxCell>
        <mxCell id="AvgogbDg6BR7GDdZJ443-87" style="edgeStyle=orthogonalEdgeStyle;rounded=1;orthogonalLoop=1;jettySize=auto;html=1;dashed=1;endArrow=none;endFill=0;fontSize=10;fontColor=#FFB570;fillColor=#e1d5e7;strokeColor=#9673a6;entryX=0;entryY=0.5;entryDx=0;entryDy=0;exitX=0.5;exitY=1;exitDx=0;exitDy=0;startArrow=classic;startFill=1;" edge="1" parent="1" source="AvgogbDg6BR7GDdZJ443-80" target="AvgogbDg6BR7GDdZJ443-79">
          <mxGeometry relative="1" as="geometry">
            <mxPoint x="200.00000000000705" y="550" as="sourcePoint" />
            <mxPoint x="70.00000000000705" y="570" as="targetPoint" />
          </mxGeometry>
        </mxCell>
        <mxCell id="AvgogbDg6BR7GDdZJ443-88" style="edgeStyle=orthogonalEdgeStyle;rounded=1;orthogonalLoop=1;jettySize=auto;html=1;dashed=1;endArrow=none;endFill=0;fontSize=10;fontColor=#FFB570;fillColor=#e1d5e7;strokeColor=#9673a6;entryX=0.5;entryY=0;entryDx=0;entryDy=0;exitX=0.5;exitY=1;exitDx=0;exitDy=0;startArrow=classic;startFill=1;" edge="1" parent="1" source="AvgogbDg6BR7GDdZJ443-81" target="AvgogbDg6BR7GDdZJ443-80">
          <mxGeometry relative="1" as="geometry">
            <mxPoint x="60.00000000000705" y="420" as="sourcePoint" />
            <mxPoint x="-69.99999999999295" y="440" as="targetPoint" />
          </mxGeometry>
        </mxCell>
        <mxCell id="AvgogbDg6BR7GDdZJ443-89" value="&quot;E&quot;" style="text;html=1;align=center;verticalAlign=middle;whiteSpace=wrap;rounded=0;" vertex="1" parent="1">
          <mxGeometry x="25" y="133" width="60" height="30" as="geometry" />
        </mxCell>
        <mxCell id="AvgogbDg6BR7GDdZJ443-90" value="&quot;I&quot;" style="text;html=1;align=center;verticalAlign=middle;whiteSpace=wrap;rounded=0;" vertex="1" parent="1">
          <mxGeometry x="360" y="114" width="60" height="30" as="geometry" />
        </mxCell>
        <mxCell id="AvgogbDg6BR7GDdZJ443-91" value="&quot;S&quot;" style="text;html=1;align=center;verticalAlign=middle;whiteSpace=wrap;rounded=0;" vertex="1" parent="1">
          <mxGeometry x="720" y="270" width="60" height="30" as="geometry" />
        </mxCell>
        <mxCell id="AvgogbDg6BR7GDdZJ443-92" value="&quot;B&quot;" style="text;html=1;align=center;verticalAlign=middle;whiteSpace=wrap;rounded=0;" vertex="1" parent="1">
          <mxGeometry x="670" y="590" width="60" height="30" as="geometry" />
        </mxCell>
        <mxCell id="AvgogbDg6BR7GDdZJ443-93" value="&quot;E&quot;" style="text;html=1;align=center;verticalAlign=middle;whiteSpace=wrap;rounded=0;" vertex="1" parent="1">
          <mxGeometry x="290" y="630" width="60" height="30" as="geometry" />
        </mxCell>
        <mxCell id="AvgogbDg6BR7GDdZJ443-94" value="&quot;I&quot;" style="text;html=1;align=center;verticalAlign=middle;whiteSpace=wrap;rounded=0;" vertex="1" parent="1">
          <mxGeometry x="25" y="632" width="60" height="30" as="geometry" />
        </mxCell>
        <mxCell id="AvgogbDg6BR7GDdZJ443-95" value="&quot;N&quot;" style="text;html=1;align=center;verticalAlign=middle;whiteSpace=wrap;rounded=0;" vertex="1" parent="1">
          <mxGeometry x="-152" y="401" width="60" height="30" as="geometry" />
        </mxCell>
        <mxCell id="AvgogbDg6BR7GDdZJ443-96" style="edgeStyle=orthogonalEdgeStyle;rounded=1;orthogonalLoop=1;jettySize=auto;html=1;dashed=1;endArrow=none;endFill=0;fontSize=10;fontColor=#FFB570;fillColor=#e1d5e7;strokeColor=#9673a6;entryX=0.212;entryY=0.099;entryDx=0;entryDy=0;startArrow=classic;startFill=1;entryPerimeter=0;exitX=0.5;exitY=0;exitDx=0;exitDy=0;" edge="1" parent="1" source="AvgogbDg6BR7GDdZJ443-75" target="AvgogbDg6BR7GDdZJ443-75">
          <mxGeometry relative="1" as="geometry">
            <mxPoint x="280" y="100" as="sourcePoint" />
            <mxPoint x="260.00000000000705" y="110" as="targetPoint" />
            <Array as="points">
              <mxPoint x="279" y="107" />
              <mxPoint x="280" y="107" />
              <mxPoint x="280" y="80" />
              <mxPoint x="262" y="80" />
            </Array>
          </mxGeometry>
        </mxCell>
        <mxCell id="AvgogbDg6BR7GDdZJ443-97" value="&quot;E&quot;" style="text;html=1;align=center;verticalAlign=middle;whiteSpace=wrap;rounded=0;" vertex="1" parent="1">
          <mxGeometry x="240" y="52" width="60" height="30" as="geometry" />
        </mxCell>
        <mxCell id="AvgogbDg6BR7GDdZJ443-98" style="edgeStyle=orthogonalEdgeStyle;rounded=1;orthogonalLoop=1;jettySize=auto;html=1;dashed=1;endArrow=none;endFill=0;fontSize=10;fontColor=#FFB570;fillColor=#e1d5e7;strokeColor=#9673a6;entryX=0.5;entryY=1;entryDx=0;entryDy=0;exitX=0.5;exitY=1;exitDx=0;exitDy=0;startArrow=classic;startFill=1;" edge="1" parent="1" source="52" target="AvgogbDg6BR7GDdZJ443-75">
          <mxGeometry relative="1" as="geometry">
            <mxPoint x="400.00000000000705" y="220" as="sourcePoint" />
            <mxPoint x="270.00000000000705" y="240" as="targetPoint" />
            <Array as="points">
              <mxPoint x="-50" y="300" />
              <mxPoint x="279" y="300" />
            </Array>
          </mxGeometry>
        </mxCell>
        <mxCell id="AvgogbDg6BR7GDdZJ443-99" value="&quot;B&quot;, &quot;N&quot;, &quot;S&quot;" style="text;html=1;align=center;verticalAlign=middle;whiteSpace=wrap;rounded=0;" vertex="1" parent="1">
          <mxGeometry x="210" y="190" width="68" height="30" as="geometry" />
        </mxCell>
        <mxCell id="AvgogbDg6BR7GDdZJ443-103" style="edgeStyle=orthogonalEdgeStyle;rounded=1;orthogonalLoop=1;jettySize=auto;html=1;dashed=1;endArrow=none;endFill=0;fontSize=10;fontColor=#FFB570;fillColor=#e1d5e7;strokeColor=#9673a6;entryX=0;entryY=1;entryDx=0;entryDy=0;exitX=1;exitY=1;exitDx=0;exitDy=0;startArrow=classic;startFill=1;" edge="1" parent="1" source="AvgogbDg6BR7GDdZJ443-75" target="AvgogbDg6BR7GDdZJ443-76">
          <mxGeometry relative="1" as="geometry">
            <mxPoint x="291.0160966544038" y="227.01609665440378" as="sourcePoint" />
            <mxPoint x="650.0039033455771" y="249.01609665442288" as="targetPoint" />
            <Array as="points">
              <mxPoint x="299" y="227" />
              <mxPoint x="300" y="260" />
              <mxPoint x="659" y="260" />
            </Array>
          </mxGeometry>
        </mxCell>
        <mxCell id="AvgogbDg6BR7GDdZJ443-104" value="&quot;E&quot;" style="text;html=1;align=center;verticalAlign=middle;whiteSpace=wrap;rounded=0;" vertex="1" parent="1">
          <mxGeometry x="440" y="237" width="60" height="30" as="geometry" />
        </mxCell>
        <mxCell id="AvgogbDg6BR7GDdZJ443-105" style="edgeStyle=orthogonalEdgeStyle;rounded=1;orthogonalLoop=1;jettySize=auto;html=1;dashed=1;endArrow=none;endFill=0;fontSize=10;fontColor=#FFB570;fillColor=#e1d5e7;strokeColor=#9673a6;entryX=0.32;entryY=0.98;entryDx=0;entryDy=0;startArrow=classic;startFill=1;entryPerimeter=0;" edge="1" parent="1" target="AvgogbDg6BR7GDdZJ443-76">
          <mxGeometry relative="1" as="geometry">
            <mxPoint x="-30" y="300" as="sourcePoint" />
            <mxPoint x="380.00000000000705" y="390" as="targetPoint" />
          </mxGeometry>
        </mxCell>
        <mxCell id="AvgogbDg6BR7GDdZJ443-106" value="&quot;B&quot;, &quot;N&quot;, &quot;I&quot;" style="text;html=1;align=center;verticalAlign=middle;whiteSpace=wrap;rounded=0;" vertex="1" parent="1">
          <mxGeometry x="580" y="273" width="70" height="30" as="geometry" />
        </mxCell>
        <mxCell id="AvgogbDg6BR7GDdZJ443-107" style="edgeStyle=orthogonalEdgeStyle;rounded=1;orthogonalLoop=1;jettySize=auto;html=1;dashed=1;endArrow=none;endFill=0;fontSize=10;fontColor=#FFB570;fillColor=#e1d5e7;strokeColor=#9673a6;entryX=0;entryY=0.5;entryDx=0;entryDy=0;startArrow=classic;startFill=1;" edge="1" parent="1" target="AvgogbDg6BR7GDdZJ443-77">
          <mxGeometry relative="1" as="geometry">
            <mxPoint x="320" y="260" as="sourcePoint" />
            <mxPoint x="450.00000000000705" y="430" as="targetPoint" />
            <Array as="points">
              <mxPoint x="350" y="429" />
            </Array>
          </mxGeometry>
        </mxCell>
        <mxCell id="AvgogbDg6BR7GDdZJ443-108" value="&quot;E&quot;" style="text;html=1;align=center;verticalAlign=middle;whiteSpace=wrap;rounded=0;" vertex="1" parent="1">
          <mxGeometry x="680" y="403" width="60" height="30" as="geometry" />
        </mxCell>
        <mxCell id="AvgogbDg6BR7GDdZJ443-109" style="edgeStyle=orthogonalEdgeStyle;rounded=1;orthogonalLoop=1;jettySize=auto;html=1;dashed=1;endArrow=none;endFill=0;fontSize=10;fontColor=#FFB570;fillColor=#e1d5e7;strokeColor=#9673a6;entryX=0;entryY=0;entryDx=0;entryDy=0;startArrow=classic;startFill=1;" edge="1" parent="1" target="AvgogbDg6BR7GDdZJ443-77">
          <mxGeometry relative="1" as="geometry">
            <mxPoint y="300" as="sourcePoint" />
            <mxPoint x="410.00000000000705" y="520" as="targetPoint" />
            <Array as="points">
              <mxPoint x="560" y="300" />
              <mxPoint x="560" y="380" />
              <mxPoint x="768" y="380" />
            </Array>
          </mxGeometry>
        </mxCell>
        <mxCell id="AvgogbDg6BR7GDdZJ443-110" value="&quot;I&quot;, &quot;N&quot;, &quot;S&quot;" style="text;html=1;align=center;verticalAlign=middle;whiteSpace=wrap;rounded=0;" vertex="1" parent="1">
          <mxGeometry x="630" y="348" width="80" height="30" as="geometry" />
        </mxCell>
        <mxCell id="AvgogbDg6BR7GDdZJ443-111" style="edgeStyle=orthogonalEdgeStyle;rounded=1;orthogonalLoop=1;jettySize=auto;html=1;dashed=1;endArrow=none;endFill=0;fontSize=10;fontColor=#FFB570;fillColor=#e1d5e7;strokeColor=#9673a6;entryX=0.5;entryY=0;entryDx=0;entryDy=0;startArrow=classic;startFill=1;" edge="1" parent="1" target="AvgogbDg6BR7GDdZJ443-78">
          <mxGeometry relative="1" as="geometry">
            <mxPoint x="30" y="301" as="sourcePoint" />
            <mxPoint x="290.00000000000705" y="530" as="targetPoint" />
            <Array as="points">
              <mxPoint x="30" y="301" />
              <mxPoint x="410" y="300" />
              <mxPoint x="410" y="570" />
              <mxPoint x="559" y="570" />
            </Array>
          </mxGeometry>
        </mxCell>
        <mxCell id="AvgogbDg6BR7GDdZJ443-112" value="&quot;B&quot;, &quot;I&quot;, &quot;N&quot;, &quot;S&quot;" style="text;html=1;align=center;verticalAlign=middle;whiteSpace=wrap;rounded=0;" vertex="1" parent="1">
          <mxGeometry x="440" y="543" width="110" height="30" as="geometry" />
        </mxCell>
        <mxCell id="AvgogbDg6BR7GDdZJ443-113" style="edgeStyle=orthogonalEdgeStyle;rounded=1;orthogonalLoop=1;jettySize=auto;html=1;dashed=1;endArrow=none;endFill=0;fontSize=10;fontColor=#FFB570;fillColor=#e1d5e7;strokeColor=#9673a6;entryX=0;entryY=0;entryDx=0;entryDy=0;exitX=0;exitY=1;exitDx=0;exitDy=0;startArrow=classic;startFill=1;" edge="1" parent="1" source="AvgogbDg6BR7GDdZJ443-75" target="AvgogbDg6BR7GDdZJ443-79">
          <mxGeometry relative="1" as="geometry">
            <mxPoint x="290.00000000000705" y="540" as="sourcePoint" />
            <mxPoint x="160.00000000000705" y="560" as="targetPoint" />
            <Array as="points">
              <mxPoint x="130" y="159" />
              <mxPoint x="130" y="610" />
              <mxPoint x="200" y="610" />
              <mxPoint x="200" y="639" />
            </Array>
          </mxGeometry>
        </mxCell>
        <mxCell id="AvgogbDg6BR7GDdZJ443-114" value="&quot;E&quot;" style="text;html=1;align=center;verticalAlign=middle;whiteSpace=wrap;rounded=0;" vertex="1" parent="1">
          <mxGeometry x="132" y="585" width="60" height="30" as="geometry" />
        </mxCell>
        <mxCell id="AvgogbDg6BR7GDdZJ443-115" style="edgeStyle=orthogonalEdgeStyle;rounded=1;orthogonalLoop=1;jettySize=auto;html=1;dashed=1;endArrow=none;endFill=0;fontSize=10;fontColor=#FFB570;fillColor=#e1d5e7;strokeColor=#9673a6;entryX=0.516;entryY=-0.076;entryDx=0;entryDy=0;startArrow=classic;startFill=1;entryPerimeter=0;" edge="1" parent="1" target="AvgogbDg6BR7GDdZJ443-79">
          <mxGeometry relative="1" as="geometry">
            <mxPoint x="60" y="300" as="sourcePoint" />
            <mxPoint x="220.00000000000705" y="470" as="targetPoint" />
          </mxGeometry>
        </mxCell>
        <mxCell id="AvgogbDg6BR7GDdZJ443-116" value="&quot;B&quot;, &quot;N&quot;, &quot;S&quot;" style="text;html=1;align=center;verticalAlign=middle;whiteSpace=wrap;rounded=0;" vertex="1" parent="1">
          <mxGeometry x="230" y="573" width="70" height="30" as="geometry" />
        </mxCell>
        <mxCell id="AvgogbDg6BR7GDdZJ443-117" style="edgeStyle=orthogonalEdgeStyle;rounded=1;orthogonalLoop=1;jettySize=auto;html=1;dashed=1;endArrow=none;endFill=0;fontSize=10;fontColor=#FFB570;fillColor=#e1d5e7;strokeColor=#9673a6;entryX=1;entryY=0.5;entryDx=0;entryDy=0;exitX=0;exitY=1;exitDx=0;exitDy=0;startArrow=classic;startFill=1;" edge="1" parent="1" source="AvgogbDg6BR7GDdZJ443-77" target="AvgogbDg6BR7GDdZJ443-80">
          <mxGeometry relative="1" as="geometry">
            <mxPoint x="180.00000000000705" y="500" as="sourcePoint" />
            <mxPoint x="50.00000000000705" y="520" as="targetPoint" />
          </mxGeometry>
        </mxCell>
        <mxCell id="AvgogbDg6BR7GDdZJ443-118" value="&quot;S&quot;" style="text;html=1;align=center;verticalAlign=middle;whiteSpace=wrap;rounded=0;" vertex="1" parent="1">
          <mxGeometry y="514" width="60" height="30" as="geometry" />
        </mxCell>
        <mxCell id="AvgogbDg6BR7GDdZJ443-122" style="edgeStyle=orthogonalEdgeStyle;rounded=1;orthogonalLoop=1;jettySize=auto;html=1;dashed=1;endArrow=none;endFill=0;fontSize=10;fontColor=#FFB570;fillColor=#e1d5e7;strokeColor=#9673a6;entryX=1;entryY=0;entryDx=0;entryDy=0;startArrow=classic;startFill=1;exitX=1;exitY=0;exitDx=0;exitDy=0;" edge="1" parent="1" source="AvgogbDg6BR7GDdZJ443-75" target="AvgogbDg6BR7GDdZJ443-80">
          <mxGeometry relative="1" as="geometry">
            <mxPoint x="350" y="90" as="sourcePoint" />
            <mxPoint x="-29.99999999999295" y="480" as="targetPoint" />
            <Array as="points">
              <mxPoint x="350" y="119" />
              <mxPoint x="350" y="120" />
              <mxPoint x="380" y="120" />
              <mxPoint x="380" y="400" />
              <mxPoint x="-30" y="400" />
            </Array>
          </mxGeometry>
        </mxCell>
        <mxCell id="AvgogbDg6BR7GDdZJ443-124" value="&quot;E&quot;" style="text;html=1;align=center;verticalAlign=middle;whiteSpace=wrap;rounded=0;" vertex="1" parent="1">
          <mxGeometry x="-30" y="376" width="60" height="30" as="geometry" />
        </mxCell>
        <mxCell id="AvgogbDg6BR7GDdZJ443-125" style="edgeStyle=orthogonalEdgeStyle;rounded=1;orthogonalLoop=1;jettySize=auto;html=1;dashed=1;endArrow=none;endFill=0;fontSize=10;fontColor=#FFB570;fillColor=#e1d5e7;strokeColor=#9673a6;entryX=0;entryY=0.5;entryDx=0;entryDy=0;startArrow=classic;startFill=1;exitX=0;exitY=0.5;exitDx=0;exitDy=0;" edge="1" parent="1" source="52" target="AvgogbDg6BR7GDdZJ443-80">
          <mxGeometry relative="1" as="geometry">
            <mxPoint x="-390" y="210" as="sourcePoint" />
            <mxPoint x="-299.99999999999295" y="500" as="targetPoint" />
            <Array as="points">
              <mxPoint x="-260" y="161" />
              <mxPoint x="-260" y="539" />
            </Array>
          </mxGeometry>
        </mxCell>
        <mxCell id="AvgogbDg6BR7GDdZJ443-126" value="&quot;B&quot;, &quot;I&quot;" style="text;html=1;align=center;verticalAlign=middle;whiteSpace=wrap;rounded=0;" vertex="1" parent="1">
          <mxGeometry x="-240" y="510" width="60" height="30" as="geometry" />
        </mxCell>
      </root>
    </mxGraphModel>
  </diagram>
</mxfile>
